<?xml version="1.0" encoding="UTF-8" standalone="no"?>
<!DOCTYPE svg PUBLIC "-//W3C//DTD SVG 1.1//EN"
 "http://www.w3.org/Graphics/SVG/1.1/DTD/svg11.dtd">
<!-- Generated by graphviz version 2.40.1 (20161225.0304)
 -->
<!-- Title: %3 Pages: 1 -->
<svg width="986pt" height="260pt"
 viewBox="0.00 0.00 986.49 260.00" xmlns="http://www.w3.org/2000/svg" xmlns:xlink="http://www.w3.org/1999/xlink">
<g id="graph0" class="graph" transform="scale(1 1) rotate(0) translate(4 256)">
<title>%3</title>
<polygon fill="#ffffff" stroke="transparent" points="-4,4 -4,-256 982.4863,-256 982.4863,4 -4,4"/>
<!-- Alt -->
<g id="node1" class="node">
<title>Alt</title>
<text text-anchor="middle" x="45.4863" y="-157.8" font-family="Times,serif" font-size="14.00" fill="#000000">Alt</text>
</g>
<!-- Plus -->
<g id="node19" class="node">
<title>Plus</title>
<text text-anchor="middle" x="36.4863" y="-85.8" font-family="Times,serif" font-size="14.00" fill="#000000">Plus</text>
</g>
<!-- Alt&#45;&gt;Plus -->
<g id="edge1" class="edge">
<title>Alt&#45;&gt;Plus</title>
<path fill="none" stroke="#000000" d="M43.2152,-143.8314C42.2527,-136.131 41.1081,-126.9743 40.0384,-118.4166"/>
<polygon fill="#000000" stroke="#000000" points="43.5014,-117.9019 38.788,-108.4133 36.5554,-118.7702 43.5014,-117.9019"/>
</g>
<!-- Alternative -->
<g id="node2" class="node">
<title>Alternative</title>
<text text-anchor="middle" x="39.4863" y="-13.8" font-family="Times,serif" font-size="14.00" fill="#000000">Alternative</text>
</g>
<!-- Applicative -->
<g id="node3" class="node">
<title>Applicative</title>
<text text-anchor="middle" x="122.4863" y="-85.8" font-family="Times,serif" font-size="14.00" fill="#000000">Applicative</text>
</g>
<!-- Applicative&#45;&gt;Alternative -->
<g id="edge2" class="edge">
<title>Applicative&#45;&gt;Alternative</title>
<path fill="none" stroke="#000000" d="M101.5419,-71.8314C91.4172,-63.0485 79.1087,-52.3712 68.1315,-42.8489"/>
<polygon fill="#000000" stroke="#000000" points="70.2714,-40.0718 60.424,-36.1628 65.6845,-45.3595 70.2714,-40.0718"/>
</g>
<!-- Monad -->
<g id="node16" class="node">
<title>Monad</title>
<text text-anchor="middle" x="124.4863" y="-13.8" font-family="Times,serif" font-size="14.00" fill="#000000">Monad</text>
</g>
<!-- Applicative&#45;&gt;Monad -->
<g id="edge3" class="edge">
<title>Applicative&#45;&gt;Monad</title>
<path fill="none" stroke="#000000" d="M122.991,-71.8314C123.2049,-64.131 123.4593,-54.9743 123.697,-46.4166"/>
<polygon fill="#000000" stroke="#000000" points="127.1957,-46.5066 123.9748,-36.4133 120.1984,-46.3122 127.1957,-46.5066"/>
</g>
<!-- Apply -->
<g id="node4" class="node">
<title>Apply</title>
<text text-anchor="middle" x="124.4863" y="-157.8" font-family="Times,serif" font-size="14.00" fill="#000000">Apply</text>
</g>
<!-- Apply&#45;&gt;Applicative -->
<g id="edge4" class="edge">
<title>Apply&#45;&gt;Applicative</title>
<path fill="none" stroke="#000000" d="M123.9816,-143.8314C123.7677,-136.131 123.5134,-126.9743 123.2757,-118.4166"/>
<polygon fill="#000000" stroke="#000000" points="126.7742,-118.3122 122.9978,-108.4133 119.7769,-118.5066 126.7742,-118.3122"/>
</g>
<!-- Chain -->
<g id="node7" class="node">
<title>Chain</title>
<text text-anchor="middle" x="208.4863" y="-85.8" font-family="Times,serif" font-size="14.00" fill="#000000">Chain</text>
</g>
<!-- Apply&#45;&gt;Chain -->
<g id="edge5" class="edge">
<title>Apply&#45;&gt;Chain</title>
<path fill="none" stroke="#000000" d="M145.6831,-143.8314C155.9298,-135.0485 168.3866,-124.3712 179.496,-114.8489"/>
<polygon fill="#000000" stroke="#000000" points="181.9816,-117.3282 187.2964,-108.1628 177.426,-112.0134 181.9816,-117.3282"/>
</g>
<!-- Bifunctor -->
<g id="node5" class="node">
<title>Bifunctor</title>
<text text-anchor="middle" x="204.4863" y="-157.8" font-family="Times,serif" font-size="14.00" fill="#000000">Bifunctor</text>
</g>
<!-- Category -->
<g id="node6" class="node">
<title>Category</title>
<text text-anchor="middle" x="564.4863" y="-157.8" font-family="Times,serif" font-size="14.00" fill="#000000">Category</text>
</g>
<!-- ChainRec -->
<g id="node8" class="node">
<title>ChainRec</title>
<text text-anchor="middle" x="208.4863" y="-13.8" font-family="Times,serif" font-size="14.00" fill="#000000">ChainRec</text>
</g>
<!-- Chain&#45;&gt;ChainRec -->
<g id="edge6" class="edge">
<title>Chain&#45;&gt;ChainRec</title>
<path fill="none" stroke="#000000" d="M208.4863,-71.8314C208.4863,-64.131 208.4863,-54.9743 208.4863,-46.4166"/>
<polygon fill="#000000" stroke="#000000" points="211.9864,-46.4132 208.4863,-36.4133 204.9864,-46.4133 211.9864,-46.4132"/>
</g>
<!-- Chain&#45;&gt;Monad -->
<g id="edge7" class="edge">
<title>Chain&#45;&gt;Monad</title>
<path fill="none" stroke="#000000" d="M187.2896,-71.8314C177.0429,-63.0485 164.5861,-52.3712 153.4767,-42.8489"/>
<polygon fill="#000000" stroke="#000000" points="155.5467,-40.0134 145.6763,-36.1628 150.9911,-45.3282 155.5467,-40.0134"/>
</g>
<!-- Comonad -->
<g id="node9" class="node">
<title>Comonad</title>
<text text-anchor="middle" x="288.4863" y="-85.8" font-family="Times,serif" font-size="14.00" fill="#000000">Comonad</text>
</g>
<!-- Contravariant -->
<g id="node10" class="node">
<title>Contravariant</title>
<text text-anchor="middle" x="676.4863" y="-229.8" font-family="Times,serif" font-size="14.00" fill="#000000">Contravariant</text>
</g>
<!-- Extend -->
<g id="node11" class="node">
<title>Extend</title>
<text text-anchor="middle" x="285.4863" y="-157.8" font-family="Times,serif" font-size="14.00" fill="#000000">Extend</text>
</g>
<!-- Extend&#45;&gt;Comonad -->
<g id="edge8" class="edge">
<title>Extend&#45;&gt;Comonad</title>
<path fill="none" stroke="#000000" d="M286.2434,-143.8314C286.5642,-136.131 286.9457,-126.9743 287.3023,-118.4166"/>
<polygon fill="#000000" stroke="#000000" points="290.7997,-118.5503 287.7191,-108.4133 283.8057,-118.2589 290.7997,-118.5503"/>
</g>
<!-- Filterable -->
<g id="node12" class="node">
<title>Filterable</title>
<text text-anchor="middle" x="775.4863" y="-229.8" font-family="Times,serif" font-size="14.00" fill="#000000">Filterable</text>
</g>
<!-- Foldable -->
<g id="node13" class="node">
<title>Foldable</title>
<text text-anchor="middle" x="466.4863" y="-229.8" font-family="Times,serif" font-size="14.00" fill="#000000">Foldable</text>
</g>
<!-- Traversable -->
<g id="node24" class="node">
<title>Traversable</title>
<text text-anchor="middle" x="466.4863" y="-157.8" font-family="Times,serif" font-size="14.00" fill="#000000">Traversable</text>
</g>
<!-- Foldable&#45;&gt;Traversable -->
<g id="edge9" class="edge">
<title>Foldable&#45;&gt;Traversable</title>
<path fill="none" stroke="#000000" d="M466.4863,-215.8314C466.4863,-208.131 466.4863,-198.9743 466.4863,-190.4166"/>
<polygon fill="#000000" stroke="#000000" points="469.9864,-190.4132 466.4863,-180.4133 462.9864,-190.4133 469.9864,-190.4132"/>
</g>
<!-- Functor -->
<g id="node14" class="node">
<title>Functor</title>
<text text-anchor="middle" x="245.4863" y="-229.8" font-family="Times,serif" font-size="14.00" fill="#000000">Functor</text>
</g>
<!-- Functor&#45;&gt;Alt -->
<g id="edge10" class="edge">
<title>Functor&#45;&gt;Alt</title>
<path fill="none" stroke="#000000" d="M215.765,-224.4182C184.0373,-214.0407 132.3937,-196.7205 88.4863,-180 86.397,-179.2044 84.2579,-178.3708 82.1041,-177.5169"/>
<polygon fill="#000000" stroke="#000000" points="83.2579,-174.208 72.6755,-173.696 80.6288,-180.6956 83.2579,-174.208"/>
</g>
<!-- Functor&#45;&gt;Apply -->
<g id="edge11" class="edge">
<title>Functor&#45;&gt;Apply</title>
<path fill="none" stroke="#000000" d="M215.8864,-216.3868C199.2042,-206.4602 178.2374,-193.9841 160.5945,-183.4859"/>
<polygon fill="#000000" stroke="#000000" points="162.0952,-180.3061 151.7118,-178.2003 158.5157,-186.3217 162.0952,-180.3061"/>
</g>
<!-- Functor&#45;&gt;Bifunctor -->
<g id="edge12" class="edge">
<title>Functor&#45;&gt;Bifunctor</title>
<path fill="none" stroke="#000000" d="M235.1403,-215.8314C230.5626,-207.7925 225.0812,-198.1666 220.0275,-189.2918"/>
<polygon fill="#000000" stroke="#000000" points="222.9615,-187.3712 214.9717,-180.4133 216.8786,-190.8351 222.9615,-187.3712"/>
</g>
<!-- Functor&#45;&gt;Extend -->
<g id="edge13" class="edge">
<title>Functor&#45;&gt;Extend</title>
<path fill="none" stroke="#000000" d="M255.58,-215.8314C260.0461,-207.7925 265.3938,-198.1666 270.3242,-189.2918"/>
<polygon fill="#000000" stroke="#000000" points="273.4598,-190.8546 275.2567,-180.4133 267.3407,-187.4551 273.4598,-190.8546"/>
</g>
<!-- Profunctor -->
<g id="node20" class="node">
<title>Profunctor</title>
<text text-anchor="middle" x="369.4863" y="-157.8" font-family="Times,serif" font-size="14.00" fill="#000000">Profunctor</text>
</g>
<!-- Functor&#45;&gt;Profunctor -->
<g id="edge14" class="edge">
<title>Functor&#45;&gt;Profunctor</title>
<path fill="none" stroke="#000000" d="M275.1874,-216.7542C291.417,-207.3306 311.7433,-195.5282 329.3649,-185.2963"/>
<polygon fill="#000000" stroke="#000000" points="331.4068,-188.158 338.2972,-180.1098 327.8918,-182.1045 331.4068,-188.158"/>
</g>
<!-- Functor&#45;&gt;Traversable -->
<g id="edge15" class="edge">
<title>Functor&#45;&gt;Traversable</title>
<path fill="none" stroke="#000000" d="M275.2588,-224.9904C307.5965,-215.1186 360.9813,-198.5733 416.2645,-180.013"/>
<polygon fill="#000000" stroke="#000000" points="417.517,-183.2844 425.8744,-176.7725 415.2803,-176.6513 417.517,-183.2844"/>
</g>
<!-- Group -->
<g id="node15" class="node">
<title>Group</title>
<text text-anchor="middle" x="867.4863" y="-85.8" font-family="Times,serif" font-size="14.00" fill="#000000">Group</text>
</g>
<!-- Monoid -->
<g id="node17" class="node">
<title>Monoid</title>
<text text-anchor="middle" x="867.4863" y="-157.8" font-family="Times,serif" font-size="14.00" fill="#000000">Monoid</text>
</g>
<!-- Monoid&#45;&gt;Group -->
<g id="edge16" class="edge">
<title>Monoid&#45;&gt;Group</title>
<path fill="none" stroke="#000000" d="M867.4863,-143.8314C867.4863,-136.131 867.4863,-126.9743 867.4863,-118.4166"/>
<polygon fill="#000000" stroke="#000000" points="870.9864,-118.4132 867.4863,-108.4133 863.9864,-118.4133 870.9864,-118.4132"/>
</g>
<!-- Ord -->
<g id="node18" class="node">
<title>Ord</title>
<text text-anchor="middle" x="951.4863" y="-157.8" font-family="Times,serif" font-size="14.00" fill="#000000">Ord</text>
</g>
<!-- Plus&#45;&gt;Alternative -->
<g id="edge17" class="edge">
<title>Plus&#45;&gt;Alternative</title>
<path fill="none" stroke="#000000" d="M37.2434,-71.8314C37.5642,-64.131 37.9457,-54.9743 38.3023,-46.4166"/>
<polygon fill="#000000" stroke="#000000" points="41.7997,-46.5503 38.7191,-36.4133 34.8057,-46.2589 41.7997,-46.5503"/>
</g>
<!-- Semigroup -->
<g id="node21" class="node">
<title>Semigroup</title>
<text text-anchor="middle" x="867.4863" y="-229.8" font-family="Times,serif" font-size="14.00" fill="#000000">Semigroup</text>
</g>
<!-- Semigroup&#45;&gt;Monoid -->
<g id="edge18" class="edge">
<title>Semigroup&#45;&gt;Monoid</title>
<path fill="none" stroke="#000000" d="M867.4863,-215.8314C867.4863,-208.131 867.4863,-198.9743 867.4863,-190.4166"/>
<polygon fill="#000000" stroke="#000000" points="870.9864,-190.4132 867.4863,-180.4133 863.9864,-190.4133 870.9864,-190.4132"/>
</g>
<!-- Semigroupoid -->
<g id="node22" class="node">
<title>Semigroupoid</title>
<text text-anchor="middle" x="564.4863" y="-229.8" font-family="Times,serif" font-size="14.00" fill="#000000">Semigroupoid</text>
</g>
<!-- Semigroupoid&#45;&gt;Category -->
<g id="edge19" class="edge">
<title>Semigroupoid&#45;&gt;Category</title>
<path fill="none" stroke="#000000" d="M564.4863,-215.8314C564.4863,-208.131 564.4863,-198.9743 564.4863,-190.4166"/>
<polygon fill="#000000" stroke="#000000" points="567.9864,-190.4132 564.4863,-180.4133 560.9864,-190.4133 567.9864,-190.4132"/>
</g>
<!-- Setoid -->
<g id="node23" class="node">
<title>Setoid</title>
<text text-anchor="middle" x="951.4863" y="-229.8" font-family="Times,serif" font-size="14.00" fill="#000000">Setoid</text>
</g>
<!-- Setoid&#45;&gt;Ord -->
<g id="edge20" class="edge">
<title>Setoid&#45;&gt;Ord</title>
<path fill="none" stroke="#000000" d="M951.4863,-215.8314C951.4863,-208.131 951.4863,-198.9743 951.4863,-190.4166"/>
<polygon fill="#000000" stroke="#000000" points="954.9864,-190.4132 951.4863,-180.4133 947.9864,-190.4133 954.9864,-190.4132"/>
</g>
</g>
</svg>
